<svg width="20" height="20" xmlns="http://www.w3.org/2000/svg" role="img" class="svg-inline--fa fa-angle-up fa-w-10" data-icon="angle-up" data-prefix="fas" focusable="false" aria-hidden="true">

 <g>
  <title>Layer 1</title>
  <path id="svg_1" d="m4.73043,11.14701l-2.86742,-3.08904c-0.19819,-0.21351 -0.19819,-0.55875 0,-0.76999l0.4765,-0.51333c0.19819,-0.21351 0.51867,-0.21351 0.71475,0l2.0325,2.18958l2.0325,-2.18958c0.19819,-0.21351 0.51867,-0.21351 0.71475,0l0.4765,0.51333c0.19819,0.21351 0.19819,0.55875 0,0.76999l-2.86742,3.08904c-0.19397,0.21351 -0.51445,0.21351 -0.71264,0z" fill="#dabe4f"/>
  <path id="svg_2" d="m5.46706,0.57228l3.04246,2.97361c0.21029,0.20553 0.21029,0.53787 0,0.74122l-0.50558,0.49414c-0.21029,0.20553 -0.55033,0.20553 -0.75838,0l-2.1588,-2.10558l-2.15656,2.10777c-0.21029,0.20553 -0.55033,0.20553 -0.75838,0l-0.50782,-0.49414c-0.21029,-0.20553 -0.21029,-0.53787 0,-0.74122l3.04246,-2.97361c0.21029,-0.20772 0.55033,-0.20772 0.76061,-0.00219z" fill="#dabe4f"/>
 </g>
</svg>